{"title":"Battle Los Angeles 2011 CAM XVID READ NFO LKRG","uid":6239117,"size":1204027395,"categoryP":"video","categoryS":"movies","magnet":"?xt=urn:btih:d09b655d1688358116995dbf0cb8ffc5d723f44d&amp;dn=Battle+Los+Angeles+2011+CAM+XVID+READ+NFO+LKRG&amp;tr=udp%3A%2F%2Ftracker.openbittorrent.com%3A80&amp;tr=udp%3A%2F%2Fopen.demonii.com%3A1337&amp;tr=udp%3A%2F%2Ftracker.coppersurfer.tk%3A6969&amp;tr=udp%3A%2F%2Fexodus.desync.com%3A6969","seeders":1,"leechers":0,"uploader":"razvanripper","files":-1,"time":1299996662,"description":"Video\nID                               : 0\nFormat                           : MPEG-4 Visual\nFormat profile                   : Advanced Simple@L5\nFormat settings, BVOP            : Yes\nFormat settings, QPel            : No\nFormat settings, GMC             : No warppoints\nFormat settings, Matrix          : Custom\nCodec ID                         : XVID\nCodec ID/Hint                    : XviD\nDuration                         : 1h 50mn\nBit rate                         : 1 126 Kbps\nWidth                            : 680 pixels\nHeight                           : 314 pixels\nDisplay aspect ratio             : 2.2:1\nFrame rate                       : 25.000 fps\nColor space                      : YUV\nChroma subsampling               : 4:2:0\nBit depth                        : 8 bits\nScan type                        : Progressive\nBits/(Pixel*Frame)               : 0.211\nStream size                      : 44.0 MiB (4%)\nWriting library                  : XviD 1.2.1 (UTC 2008-12-04)\n\nAudio\nID                               : 1\nFormat                           : MPEG Audio\nCodec ID                         : 55\nCodec ID/Hint                    : MP3\nDuration                         : 1h 50mn\nBit rate                         : 128 Kbps\nChannel(s)                       : 2 channels\nSampling rate                    : 44.1 KHz\nStream size                      : 101 MiB (9%)\nAlignment                        : Aligned on interleaves\n &lt;a href=&quot;\nhttp://www.imdb.com/title/tt1217613/&quot; rel=&quot;nofollow&quot; target=&quot;_NEW&quot;&gt;\nhttp://www.imdb.com/title/tt1217613/&lt;/a&gt;\n\nA Marine platoon faces off against an alien invasion in Los Angeles.\nScreens &lt;a href=&quot;\nhttp://www.grinshare.com/img/Z085XC.png&quot; rel=&quot;nofollow&quot; target=&quot;_NEW&quot;&gt;\nhttp://www.grinshare.com/img/Z085XC.png&lt;/a&gt; &lt;a href=&quot;\nhttp://www.grinshare.com/img/Q9QGM7.png&quot; rel=&quot;nofollow&quot; target=&quot;_NEW&quot;&gt;\nhttp://www.grinshare.com/img/Q9QGM7.png&lt;/a&gt; &lt;a href=&quot;\nhttp://www.grinshare.com/img/M5C9T7.png&quot; rel=&quot;nofollow&quot; target=&quot;_NEW&quot;&gt;\nhttp://www.grinshare.com/img/M5C9T7.png&lt;/a&gt;","torrent":{"xt":"urn:btih:d09b655d1688358116995dbf0cb8ffc5d723f44d","amp;dn":"Battle+Los+Angeles+2011+CAM+XVID+READ+NFO+LKRG","amp;tr":["udp%3A%2F%2Ftracker.openbittorrent.com%3A80","udp%3A%2F%2Fopen.demonii.com%3A1337","udp%3A%2F%2Ftracker.coppersurfer.tk%3A6969","udp%3A%2F%2Fexodus.desync.com%3A6969"],"infoHash":"d09b655d1688358116995dbf0cb8ffc5d723f44d","infoHashBuffer":{"type":"Buffer","data":[208,155,101,93,22,136,53,129,22,153,93,191,12,184,255,197,215,35,244,77]},"announce":[],"urlList":[]}}